# xmcd
#
# Track frame offsets: 
#        150
#        12060
#        27287
#        42471
#        63099
#        76653
#        93664
#        110495
#        119074
#        133496
#        146032
#        165048
#        181651
#        194954
#        215584
#        227880
#        245034
#        263892
#        278912
#        293802
#
# Disc length: 4120 seconds
#
# Revision: 0
# Processed by: cddbd v1.5.2PL0 Copyright (c) Steve Scherf et al.
# Submitted via: ExactAudioCopyFreeDBPlugin 1.0
#
DISCID=2d101614
DTITLE=Kc Rebell - Rebellution (Hayvan Fan Box)
DYEAR=2014
DGENRE=Rap
TTITLE0=Rebellution (Intro)
TTITLE1=Auge
TTITLE2=Kanax in Moskau (feat. Farid Bang)
TTITLE3=Bist du da (feat. Manuellsen)
TTITLE4=Egoist (feat. Kollegah)
TTITLE5=Herzblut
TTITLE6=Zu spät
TTITLE7=Freestyle Skit Reloaded
TTITLE8=Hayvan (feat. Summer Cem)
TTITLE9=Rap Rebellution
TTITLE10=Geh doch
TTITLE11=Piff (feat. Kurdo)
TTITLE12=Money Boy Interlude
TTITLE13=Money Boy (feat. Majoe)
TTITLE14=Head in a Bead
TTITLE15=Du bist niemand (feat. PA Sports)
TTITLE16=Rebell Army
TTITLE17=Bounce 2 (feat. Majoe) (Bonus Track)
TTITLE18=True fucking Players (feat. Farid Bang and Summer Cem) (Bonus T
TTITLE18=rack)
TTITLE19=OMG (Bonus Track)
EXTD=
EXTT0=
EXTT1=
EXTT2=
EXTT3=
EXTT4=
EXTT5=
EXTT6=
EXTT7=
EXTT8=
EXTT9=
EXTT10=
EXTT11=
EXTT12=
EXTT13=
EXTT14=
EXTT15=
EXTT16=
EXTT17=
EXTT18=
EXTT19=
PLAYORDER=
